PathFileType	4	(X/Y/Z)	Walk4.trc
DataRate	CameraRate	NumFrames	NumMarkers	Units	OrigDataRate	OrigDataStartFrame	OrigNumFrames
200.000000	200.000000	9	58	mm	200.000000	496	662
Frame#	Times		RLFC		RBHD		RMT5		RToe		RTB2		RMT1		LACR1		LElbow		LUA1		LWRR		C7		LCAR		RCAL		RFA1		RCAR		RTH3		LLFC		LTH3		LPSI		LASI		LMMAL		RPSI		LTB2		LCAL		LMT5		RLMAL		RFHD		LTH2		RElbow		RWRR		RMFC		LElbowM		LTB1		LToe		RTH1		RTH4		LTH4		T10		LTH1		RBack		RWRU		LTB3		LTB4		LBHD		LWRU		RTB4		LLMAL		LMT1		RTB3		LMFC		RTB1		RASI		RTH2		LFHD		RACR1		RUA1		RMMAL		RElbowM
			X1	Y1	Z1	X2	Y2	Z2	X3	Y3	Z3	X4	Y4	Z4	X5	Y5	Z5	X6	Y6	Z6	X7	Y7	Z7	X8	Y8	Z8	X9	Y9	Z9	X10	Y10	Z10	X11	Y11	Z11	X12	Y12	Z12	X13	Y13	Z13	X14	Y14	Z14	X15	Y15	Z15	X16	Y16	Z16	X17	Y17	Z17	X18	Y18	Z18	X19	Y19	Z19	X20	Y20	Z20	X21	Y21	Z21	X22	Y22	Z22	X23	Y23	Z23	X24	Y24	Z24	X25	Y25	Z25	X26	Y26	Z26	X27	Y27	Z27	X28	Y28	Z28	X29	Y29	Z29	X30	Y30	Z30	X31	Y31	Z31	X32	Y32	Z32	X33	Y33	Z33	X34	Y34	Z34	X35	Y35	Z35	X36	Y36	Z36	X37	Y37	Z37	X38	Y38	Z38	X39	Y39	Z39	X40	Y40	Z40	X41	Y41	Z41	X42	Y42	Z42	X43	Y43	Z43	X44	Y44	Z44	X45	Y45	Z45	X46	Y46	Z46	X47	Y47	Z47	X48	Y48	Z48	X49	Y49	Z49	X50	Y50	Z50	X51	Y51	Z51	X52	Y52	Z52	X53	Y53	Z53	X54	Y54	Z54	X55	Y55	Z55	X56	Y56	Z56	X57	Y57	Z57	X58	Y58	Z58

496	2.48	116.33	523.53	138.53	23.612	1615.5	-24.139	168.2	22.446	118.55	266.21	25.493	79.325	124.74	284.89	117.22	212.93	30.651	38.497	76.546	1428.5	-136.55	-20.813	1102	-262.32	31.713	1231.9	-220.88	30.849	824.39	-261.37	-6.7022	1481.1	40.037	-10.76	961.04	-268.5	3.6415	34.774	18.078	56.571	918.99	307.13	151	787.18	297.11	109.65	569.94	144.59	141.76	524.98	-129.45	145.07	580.13	-133.66	-93.248	1038.9	-13.488	98.726	1041.3	-139.54	-126.99	179.82	-48.324	-92.83	1042.4	55.817	53.895	339.9	-130.39	-216.36	197.17	-89.686	-75.482	79.608	-132.84	54.292	69.203	80.891	200.09	1652.8	6.8503	183.35	688.44	-108.26	17.762	1076.1	308.51	150.54	832.71	246.62	98.704	494.32	13.383	-65.568	1093.8	-189.81	123.29	397.74	-53.358	-9.0035	72.302	-70.15	81.887	751.77	186.99	95.617	659.94	169.39	122.39	671.84	-146.7	-79.092	1223.9	32.692	99.19	761.91	-156.15	-16.111	1362.8	188.86	79.029	799.66	277.44	-16.148	272.33	-64.507	46.457	334.87	-59.028	25.864	1602.5	112.18	103.21	809.1	-247.07	136.61	287.14	43.137	-144.83	183.17	-131.89	-59.445	70.349	-54.187	118.91	200.41	38.289	132.72	503.08	-3.5622	151.8	383.13	53.415	103.2	995.67	169.86	157.53	678.5	132.23	200.81	1647.3	81.603	112.22	1421.1	186.59	84.95	1237.6	267.2	86.033	74.132	5.565	-22.317	1079.6	232.54
497	2.485	118.35	523.42	138.64	28.501	1616.1	-23.996	168.14	22.394	118.63	266.21	25.516	79.335	125.68	284.71	117.25	212.91	30.631	38.563	81.167	1428.9	-136.25	-17.768	1102.8	-261.61	35.474	1232.4	-220.34	31.423	824.84	-261.43	-1.96	1481.7	40.346	-8.9366	961.88	-268.1	3.6484	34.828	18.046	62.864	920.01	307.86	158.07	788.83	297.87	111.94	569.89	144.7	149.88	526.83	-129.28	152.56	581.81	-133.47	-88.634	1039.6	-13.209	103.47	1041.8	-138.99	-113.6	177.31	-47.926	-88.279	1043.1	56.114	64.558	340.36	-130.18	-203.4	192.93	-89.05	-60.291	78.411	-132.79	54.391	69.306	80.853	205.02	1653.3	6.9206	189.99	690.47	-108.37	23.141	1076.9	309.31	157.37	834.33	247.32	100.55	494.15	13.423	-62.617	1095	-189.13	132.49	398.89	-52.926	6.7232	71.988	-70.355	84.409	751.95	187.53	98.502	659.97	169.51	129.1	673.31	-146.64	-74.387	1224.5	33.21	105.06	763.2	-156.17	-11.257	1363.7	189.34	86.05	800.85	278.12	-4.4326	271.61	-64.323	57.654	335.28	-58.757	30.752	1603.2	112.32	103.65	808.79	-247.22	137.44	286.92	43.19	-131.66	180.46	-131.43	-43.721	69.246	-54.229	119.43	200.27	38.297	141.11	504.49	-3.3245	153.19	382.85	53.378	107.55	996.17	170.42	160.28	678.21	132.34	205.75	1647.8	81.679	117.05	1421.9	186.87	90.021	1238.5	267.77	86.123	74.138	5.5479	-16.871	1080.2	233.27
498	2.49	120.35	523.31	138.74	33.387	1616.7	-23.858	168.08	22.353	118.7	266.21	25.541	79.345	126.61	284.53	117.28	212.9	30.611	38.631	85.783	1429.3	-135.97	-14.719	1103.6	-260.92	39.236	1232.9	-219.82	32.027	825.28	-261.48	2.7788	1482.3	40.644	-7.0978	962.7	-267.7	3.6572	34.88	18.015	69.133	921.01	308.58	165.12	790.46	298.6	114.21	569.84	144.79	157.89	528.64	-129.12	159.97	583.48	-133.3	-84.033	1040.3	-12.933	108.17	1042.4	-138.47	-100.06	174.64	-47.505	-83.729	1043.7	56.406	75.204	340.76	-129.96	-190.26	188.46	-88.37	-44.921	77.128	-132.75	54.48	69.397	80.818	209.94	1653.7	6.98	196.53	692.49	-108.43	28.507	1077.6	310.11	164.17	835.94	248	102.39	493.99	13.443	-59.65	1096.2	-188.46	141.71	400.03	-52.527	22.617	71.648	-70.576	86.927	752.11	188.05	101.37	660	169.63	135.76	674.78	-146.59	-69.69	1225.1	33.716	110.92	764.48	-156.18	-6.4088	1364.5	189.81	93.056	802.04	278.77	7.3727	270.77	-64.142	68.93	335.6	-58.456	35.644	1603.9	112.47	104.12	808.47	-247.36	138.25	286.7	43.243	-118.34	177.57	-130.95	-27.804	68.06	-54.275	119.94	200.11	38.309	149.35	505.88	-3.085	154.63	382.57	53.299	111.91	996.63	170.93	163.03	677.9	132.43	210.69	1648.3	81.745	121.87	1422.7	187.15	95.083	1239.3	268.34	86.21	74.144	5.5341	-11.449	1080.8	234
499	2.495	122.34	523.2	138.84	38.271	1617.2	-23.724	168.02	22.321	118.76	266.21	25.564	79.353	127.54	284.35	117.3	212.88	30.591	38.698	90.398	1429.7	-135.69	-11.663	1104.4	-260.23	42.996	1233.4	-219.32	32.664	825.71	-261.52	7.5191	1482.8	40.929	-5.241	963.5	-267.29	3.6683	34.93	17.985	75.383	921.99	309.29	172.14	792.07	299.3	116.48	569.79	144.87	165.79	530.41	-128.97	167.32	585.15	-133.14	-79.444	1041	-12.661	112.81	1042.9	-137.97	-86.36	171.82	-47.062	-79.182	1044.3	56.695	85.83	341.09	-129.73	-176.93	183.79	-87.655	-29.38	75.767	-132.7	54.557	69.477	80.785	214.87	1654.1	7.0295	202.96	694.48	-108.45	33.864	1078.4	310.92	170.95	837.53	248.66	104.23	493.85	13.449	-56.664	1097.3	-187.79	150.95	401.18	-52.162	38.667	71.288	-70.808	89.47	752.25	188.56	104.21	660.01	169.73	142.37	676.24	-146.55	-65	1225.7	34.208	116.75	765.73	-156.2	-1.5667	1365.2	190.26	100.05	803.22	279.39	19.267	269.81	-63.964	80.26	335.85	-58.133	40.54	1604.6	112.6	104.63	808.15	-247.49	139.07	286.48	43.296	-104.86	174.53	-130.45	-11.704	66.804	-54.323	120.44	199.95	38.323	157.46	507.27	-2.8479	156.11	382.28	53.191	116.28	997.06	171.4	165.78	677.59	132.51	215.62	1648.7	81.802	126.69	1423.5	187.41	100.14	1240.2	268.91	86.293	74.15	5.5229	-6.051	1081.3	234.75
500	2.5	124.33	523.07	138.93	43.151	1617.7	-23.594	167.97	22.298	118.83	266.21	25.584	79.36	128.47	284.16	117.33	212.86	30.571	38.762	95.016	1430	-135.44	-8.5987	1105.2	-259.56	46.754	1233.8	-218.84	33.336	826.13	-261.53	12.265	1483.3	41.2	-3.364	964.27	-266.87	3.6825	34.977	17.955	81.616	922.93	309.99	179.14	793.63	299.98	118.73	569.72	144.95	173.57	532.13	-128.82	174.58	586.8	-132.99	-74.867	1041.6	-12.392	117.41	1043.3	-137.49	-72.503	168.87	-46.601	-74.638	1044.9	56.979	96.433	341.35	-129.5	-163.41	178.94	-86.909	-13.675	74.339	-132.66	54.623	69.55	80.753	219.79	1654.4	7.0703	209.29	696.44	-108.42	39.213	1079.1	311.74	177.71	839.09	249.31	106.06	493.71	13.446	-53.656	1098.4	-187.13	160.21	402.32	-51.831	54.863	70.913	-71.047	92.06	752.36	189.03	107.03	660	169.83	148.92	677.68	-146.52	-60.316	1226.2	34.686	122.55	766.95	-156.22	3.2682	1366	190.71	107.02	804.37	279.99	31.249	268.75	-63.783	91.616	336.02	-57.797	45.438	1605.2	112.74	105.17	807.84	-247.61	139.9	286.25	43.346	-91.237	171.33	-129.93	4.5679	65.493	-54.369	120.93	199.79	38.341	165.42	508.65	-2.6153	157.62	381.98	53.066	120.64	997.46	171.84	168.53	677.26	132.59	220.56	1649.2	81.85	131.51	1424.2	187.66	105.19	1241	269.48	86.373	74.157	5.5136	-0.67529	1081.9	235.51
501	2.505	126.3	522.95	139.02	48.026	1618.1	-23.467	167.93	22.281	118.88	266.22	25.599	79.365	129.39	283.98	117.36	212.85	30.552	38.822	99.64	1430.3	-135.19	-5.5257	1105.9	-258.9	50.511	1234.3	-218.39	34.045	826.54	-261.53	17.02	1483.8	41.458	-1.4643	965.01	-266.44	3.7012	35.021	17.926	87.834	923.83	310.68	186.12	795.16	300.62	120.97	569.64	145.02	181.22	533.8	-128.68	181.75	588.44	-132.85	-70.301	1042.2	-12.127	121.96	1043.8	-137.02	-58.493	165.8	-46.123	-70.099	1045.5	57.258	107.01	341.53	-129.27	-149.71	173.92	-86.139	2.1853	72.852	-132.62	54.679	69.617	80.723	224.7	1654.8	7.1035	215.53	698.36	-108.34	44.559	1079.8	312.57	184.44	840.62	249.93	107.89	493.59	13.44	-50.621	1099.5	-186.48	169.48	403.46	-51.533	71.195	70.529	-71.288	94.712	752.45	189.46	109.83	659.97	169.92	155.4	679.1	-146.49	-55.637	1226.8	35.148	128.31	768.15	-156.23	8.0954	1366.7	191.13	113.98	805.5	280.56	43.316	267.6	-63.598	102.97	336.12	-57.456	50.34	1605.8	112.87	105.74	807.53	-247.72	140.74	286.02	43.393	-77.462	168	-129.39	21.003	64.142	-54.409	121.42	199.62	38.362	173.23	510	-2.3881	159.14	381.68	52.935	125.02	997.83	172.23	171.28	676.91	132.67	225.5	1649.6	81.893	136.33	1424.9	187.91	110.23	1241.8	270.04	86.449	74.164	5.5056	4.6782	1082.3	236.29
502	2.51	128.27	522.81	139.11	52.897	1618.6	-23.344	167.89	22.27	118.93	266.23	25.606	79.369	130.31	283.81	117.38	212.83	30.532	38.876	104.27	1430.6	-134.96	-2.4422	1106.6	-258.26	54.268	1234.7	-217.96	34.795	826.93	-261.5	21.786	1484.3	41.7	0.46024	965.71	-266.01	3.7261	35.065	17.896	94.042	924.69	311.36	193.07	796.65	301.23	123.21	569.55	145.08	188.75	535.4	-128.55	188.84	590.05	-132.71	-65.746	1042.8	-11.867	126.46	1044.2	-136.57	-44.332	162.62	-45.632	-65.567	1046	57.53	117.55	341.65	-129.03	-135.82	168.75	-85.351	18.194	71.313	-132.57	54.726	69.681	80.695	229.61	1655.1	7.1301	221.66	700.23	-108.22	49.903	1080.4	313.41	191.14	842.11	250.54	109.73	493.47	13.434	-47.557	1100.5	-185.83	178.76	404.58	-51.264	87.652	70.14	-71.523	97.434	752.51	189.85	112.61	659.93	170	161.81	680.49	-146.47	-50.961	1227.2	35.592	134.02	769.32	-156.24	12.915	1367.3	191.54	120.91	806.6	281.12	55.462	266.36	-63.403	114.31	336.14	-57.116	55.244	1606.4	113.01	106.35	807.22	-247.81	141.6	285.78	43.433	-63.537	164.53	-128.84	37.59	62.763	-54.438	121.91	199.45	38.385	180.89	511.33	-2.1662	160.67	381.36	52.808	129.4	998.17	172.57	174.03	676.56	132.74	230.43	1650	81.929	141.14	1425.6	188.15	115.26	1242.5	270.61	86.524	74.17	5.4989	10.01	1082.8	237.08
503	2.515	130.23	522.67	139.19	57.762	1618.9	-23.223	167.85	22.263	118.98	266.24	25.602	79.372	131.24	283.63	117.4	212.81	30.512	38.923	108.92	1430.8	-134.74	0.65303	1107.2	-257.62	58.026	1235.1	-217.56	35.587	827.32	-261.45	26.565	1484.7	41.928	2.4119	966.39	-265.58	3.759	35.107	17.866	100.24	925.5	312.04	200.02	798.09	301.8	125.43	569.45	145.13	196.14	536.94	-128.41	195.83	591.63	-132.58	-61.2	1043.4	-11.613	130.92	1044.5	-136.14	-30.021	159.34	-45.129	-61.043	1046.5	57.793	128.05	341.69	-128.79	-121.74	163.45	-84.55	34.346	69.729	-132.51	54.767	69.743	80.667	234.51	1655.4	7.1512	227.7	702.05	-108.06	55.249	1081	314.25	197.82	843.56	251.11	111.56	493.36	13.432	-44.461	1101.5	-185.19	188.03	405.68	-51.021	104.22	69.753	-71.747	100.23	752.54	190.2	115.37	659.87	170.08	168.15	681.86	-146.45	-46.29	1227.7	36.019	139.67	770.46	-156.24	17.727	1368	191.93	127.83	807.66	281.66	67.684	265.06	-63.196	125.6	336.09	-56.784	60.151	1606.9	113.14	106.99	806.91	-247.88	142.48	285.54	43.467	-49.462	160.95	-128.28	54.319	61.37	-54.453	122.41	199.27	38.408	188.4	512.61	-1.9493	162.2	381.03	52.691	133.79	998.49	172.88	176.78	676.19	132.82	235.36	1650.3	81.961	145.96	1426.1	188.38	120.29	1243.2	271.18	86.596	74.175	5.4933	15.322	1083.2	237.89
504	2.52	132.19	522.52	139.26	62.623	1619.3	-23.104	167.81	22.258	119.02	266.26	25.588	79.372	132.16	283.45	117.42	212.8	30.49	38.963	113.58	1430.9	-134.53	3.7613	1107.8	-256.99	61.788	1235.4	-217.17	36.425	827.68	-261.38	31.358	1485.1	42.142	4.3928	967.04	-265.15	3.8016	35.148	17.835	106.43	926.28	312.71	206.94	799.48	302.34	127.65	569.33	145.18	203.39	538.41	-128.27	202.73	593.17	-132.45	-56.664	1043.9	-11.368	135.34	1044.8	-135.72	-15.562	155.99	-44.618	-56.528	1047.1	58.046	138.52	341.67	-128.55	-107.46	158.03	-83.741	50.633	68.109	-132.45	54.804	69.805	80.641	239.41	1655.6	7.1675	233.65	703.82	-107.86	60.6	1081.5	315.09	204.47	844.97	251.66	113.39	493.26	13.434	-41.331	1102.4	-184.54	197.28	406.76	-50.802	120.9	69.374	-71.955	103.09	752.56	190.51	118.11	659.8	170.15	174.41	683.19	-146.42	-41.622	1228.1	36.426	145.28	771.57	-156.23	22.531	1368.6	192.31	134.71	808.67	282.19	79.975	263.69	-62.974	136.83	335.97	-56.463	65.06	1607.3	113.28	107.67	806.59	-247.93	143.39	285.3	43.492	-35.235	157.27	-127.71	71.177	59.975	-54.453	122.93	199.1	38.429	195.74	513.84	-1.737	163.74	380.7	52.588	138.17	998.78	173.15	179.53	675.81	132.89	240.29	1650.7	81.988	150.77	1426.7	188.6	125.32	1243.8	271.75	86.667	74.179	5.4883	20.615	1083.5	238.71
